<!-- Generated by IcoMoon.io -->
<svg version="1.1" xmlns="http://www.w3.org/2000/svg">
    <symbol viewBox="0 0 16 16" id="logo">
      <title>Rent-a-Car</title>
      <path fill="#a83a11" d="M3.044 7.247c0.079-0.055 0.119-0.106 0.119-0.16 0-0.065-0.041-0.119-0.092-0.16-0.027-0.027-0.133-0.065-0.065-0.171 0.58 0.147 2.422-0.529 4.026-0.529 1.007 0 1.972 0.171 2.941 0.57 0.611 0 2.968 0.253 3.511 1.167-0.027 0.027-0.065 0.092-0.078 0.133h-0.133c0.014-0.041 0.041-0.092 0.065-0.133-0.345-0.529-2.808-0.956-3.484-0.956-0.969-0.437-1.948-0.57-2.822-0.57-1.696 0-2.887 0.556-3.815 0.491 0 0.065 0.106 0.133 0.106 0.239 0 0.092-0.041 0.184-0.106 0.266-0.212-0.003-0.532 0.198-0.532 0.659h-0.171c0-0.225 0-0.594 0.529-0.846z"></path>
      <path fill="#000" d="M3.449 9.359c0.104 0 0.214-0.031 0.289-0.080l-0.021-0.184c-0.018 0.008-0.041 0.016-0.062 0.016-0.029 0-0.044-0.023-0.049-0.054l-0.006-0.067c-0.006-0.063-0.024-0.104-0.068-0.122v-0.002c0.171-0.068 0.263-0.205 0.263-0.37 0-0.216-0.161-0.335-0.453-0.335h-0.582l-0.185 1.169h0.422l0.062-0.39h0.057c0.050 0 0.068 0.041 0.075 0.088l0.012 0.107c0.014 0.137 0.107 0.221 0.247 0.221zM3.1 8.683l0.036-0.227h0.125c0.070 0 0.109 0.034 0.109 0.094 0 0.086-0.052 0.133-0.145 0.133zM3.818 9.333h0.835l0.050-0.325h-0.429l0.021-0.13h0.348l0.044-0.276h-0.348l0.018-0.114h0.413l0.052-0.325h-0.819zM4.758 9.333h0.387l0.107-0.677h0.003l0.24 0.677h0.474l0.185-1.169h-0.387l-0.107 0.681h-0.003l-0.24-0.681h-0.474zM6.372 9.333h0.422l0.128-0.812h0.296l0.057-0.357h-1.014l-0.057 0.357h0.296z"></path>
      <path fill="#a83a11" d="M7.241 8.977h0.51l0.028-0.169h-0.512zM7.762 9.333h0.275l0.114-0.231h0.426l0.036 0.231h0.286l-0.213-1.156h-0.344zM8.229 8.909l0.25-0.512h0.003l0.079 0.512zM9.021 8.977h0.51l0.028-0.169h-0.512z"></path>
      <path fill="#000" d="M10.233 9.372c0.333 0 0.599-0.213 0.679-0.536l-0.385-0.041c-0.042 0.132-0.145 0.218-0.262 0.218-0.115 0-0.18-0.076-0.18-0.205 0-0.156 0.078-0.326 0.227-0.326 0.096 0 0.156 0.075 0.159 0.192l0.395-0.084c0.013-0.281-0.183-0.465-0.523-0.465-0.403 0-0.684 0.322-0.684 0.724 0 0.328 0.219 0.523 0.573 0.523zM10.853 9.333h0.414l0.081-0.182h0.323l0.015 0.182h0.437l-0.19-1.169h-0.52zM11.448 8.878l0.174-0.401h0.003l0.034 0.401zM13.072 9.359c0.104 0 0.214-0.031 0.289-0.080l-0.021-0.184c-0.018 0.008-0.041 0.016-0.062 0.016-0.029 0-0.044-0.023-0.049-0.054l-0.006-0.067c-0.006-0.063-0.024-0.104-0.068-0.122v-0.002c0.171-0.068 0.263-0.205 0.263-0.37 0-0.216-0.161-0.335-0.453-0.335h-0.582l-0.185 1.169h0.422l0.062-0.39h0.057c0.050 0 0.068 0.041 0.075 0.088l0.012 0.107c0.014 0.137 0.107 0.221 0.247 0.221zM12.723 8.683l0.036-0.227h0.125c0.070 0 0.109 0.034 0.109 0.094 0 0.086-0.052 0.133-0.145 0.133z"></path>
    </symbol>
</svg>
